Coordinates
version=1
nRows=9
nColumns=36
inDegrees=yes

Units are S.I. units (second, meters, Newtons, ...)
If the header above contains a line with 'inDegrees', this indicates whether rotational values are in degrees (yes) or radians (no).

endheader
time	pelvis_tilt	pelvis_list	pelvis_rotation	pelvis_tx	pelvis_ty	pelvis_tz	hip_flexion_r	hip_adduction_r	hip_rotation_r	knee_angle_r	knee_angle_r_beta	ankle_angle_r	subtalar_angle_r	mtp_angle_r	hip_flexion_l	hip_adduction_l	hip_rotation_l	knee_angle_l	knee_angle_l_beta	ankle_angle_l	subtalar_angle_l	mtp_angle_l	lumbar_extension	lumbar_bending	lumbar_rotation	arm_flex_r	arm_add_r	arm_rot_r	elbow_flex_r	pro_sup_r	arm_flex_l	arm_add_l	arm_rot_l	elbow_flex_l	pro_sup_l
      6.33333330	      1.82740680	     -1.34865407	      2.59725114	      0.43552677	      0.90150734	     -0.10689801	     -5.29525508	     -0.38933992	      3.96321904	      0.69764298	      0.01217617	      5.31415512	    -16.70082099	     -7.49999987	     -5.08751173	     -4.32957093	      6.79624333	      0.56756448	      0.00990587	      6.86341292	     -9.75997663	     -7.49999987	     -5.72271708	     -0.08255912	      0.32442864	      4.79031215	     -9.63639515	     19.39781899	     23.87090953	     72.84624101	      2.25842156	     -9.28218880	     16.99640472	     24.85316505	     65.03204473
      6.35000000	      1.81470025	     -1.35825117	      2.62773337	      0.43320524	      0.90114884	     -0.10612292	     -5.27945111	     -0.32589638	      3.87869971	      0.70492735	      0.01230330	      5.37401503	    -16.72908298	     -7.49999987	     -5.06797611	     -4.37597810	      6.82408660	      0.56804712	      0.00991429	      6.91631844	     -9.75534234	     -7.49999987	     -5.77203039	     -0.07353425	      0.37106426	      4.81584007	     -9.64061306	     19.40565829	     23.88572277	     72.89502156	      2.24821039	     -9.45071689	     16.98493089	     24.83250907	     65.05347198
      6.36666670	      1.87986933	     -1.37943100	      2.72984158	      0.43392940	      0.90121211	     -0.10620848	     -5.34674429	     -0.25647990	      3.69173522	      0.74917604	      0.01307559	      5.51318255	    -16.55828966	     -7.49999987	     -5.12315900	     -4.44091355	      6.90399061	      0.58716263	      0.01024792	      7.05805555	     -9.70276314	     -7.49999987	     -5.91888104	     -0.01081228	      0.31437081	      4.83602977	     -9.57129939	     18.29303265	     23.86342777	     79.43687141	      2.20029318	     -9.57137772	     16.69307185	     24.86623650	     68.17906596
      6.38333330	      1.94578297	     -1.39015482	      2.72270039	      0.43468564	      0.90152842	     -0.10633119	     -5.40333647	     -0.21099894	      3.86701356	      0.78898885	      0.01377045	      5.31189794	    -17.00990218	     -7.49999987	     -5.22767396	     -4.49100447	      6.84519117	      0.59366619	      0.01036143	      7.17884076	     -9.64318658	     -7.49999987	     -6.09857400	     -0.03664274	      0.47390790	      4.74806535	     -9.56009632	     18.80404582	     24.09429955	     75.01325763	      2.15048148	     -9.69417318	     16.67346972	     25.14564405	     66.11412728
      6.40000000	      1.89306329	     -1.42087163	      2.81576492	      0.43430159	      0.90478836	     -0.10684018	     -5.34264287	     -0.15691073	      3.61658624	      0.82131356	      0.01433463	      5.25868923	    -16.88517287	     -7.49999987	     -5.15730997	     -4.55240837	      7.04282606	      0.59689319	      0.01041775	      7.05235258	     -9.82943704	     -7.49999987	     -6.04793589	      0.01680994	      0.39045649	      4.74528345	     -9.42361903	     17.76792433	     23.87393763	     80.06695338	      2.14662630	     -9.75697576	     16.35533903	     24.95258031	     68.44096575
      6.41666670	      1.97535174	     -1.46838809	      2.86741090	      0.43419321	      0.89859430	     -0.10722907	     -5.41703993	     -0.08875082	      3.63399936	      0.88008728	      0.01536042	      4.96955519	    -17.37017052	     -7.49999987	     -5.24511508	     -4.61035428	      7.06556373	      0.60978961	      0.01064284	      7.20567860	     -9.87055335	     -7.49999987	     -6.14614512	      0.06349813	      0.41175381	      4.72896016	     -9.45725886	     18.05924754	     23.89868776	     79.08176855	      2.19645725	     -9.93408923	     16.62864887	     25.08317718	     68.01205844
      6.43333330	      2.00103421	     -1.49097957	      2.90233366	      0.43377698	      0.89806678	     -0.10726979	     -5.41728767	     -0.04575937	      3.54470915	      0.96710883	      0.01687923	      4.80770640	    -17.65782636	     -7.49999987	     -5.26269543	     -4.64581637	      7.19594077	      0.61571509	      0.01074626	      7.20862242	    -10.10136846	     -7.49999987	     -6.18015356	      0.10312661	      0.37784105	      4.77153738	     -9.44075101	     18.03909295	     23.82675678	     79.80235160	      2.23706040	    -10.03933504	     16.61606640	     25.10022704	     68.22960086
      6.45000000	      2.02527321	     -1.50331641	      2.92821377	      0.43348023	      0.89936209	     -0.10791506	     -5.40369330	     -0.02178786	      3.44707024	      1.04867921	      0.01830290	      4.71162651	    -17.90670780	     -7.49999987	     -5.27083041	     -4.65187854	      7.31977384	      0.62262633	      0.01086688	      7.18601714	    -10.32301609	     -7.49999987	     -6.17628221	      0.12715578	      0.36542717	      4.89752791	     -9.57643459	     19.65603269	     23.70079441	     76.83407889	      2.32738814	    -10.20297286	     17.37859350	     25.11972784	     66.89330509
      6.46666670	      1.96427704	     -1.50557021	      2.90069155	      0.43325322	      0.89952622	     -0.10759112	     -5.27918674	     -0.00627526	      3.66244462	      1.12189999	      0.01958085	      4.31531419	    -18.75817409	     -7.49999987	     -5.18217627	     -4.63433012	      7.41053377	      0.63855134	      0.01114482	      7.10944214	    -10.58122522	     -7.49999987	     -6.14053175	      0.10721980	      0.41309305	      4.92032131	     -9.61626057	     20.62493653	     23.71582541	     72.24941366	      2.37971314	    -10.29242485	     17.61603592	     25.24814849	     64.72591230
